<svg width="782" height="232" viewBox="0 0 782 232" fill="none" xmlns="http://www.w3.org/2000/svg">
<path d="M4.23593 217.58C4.23593 217.58 4.05593 217.45 3.71593 217.17C3.38593 216.88 2.89593 216.44 2.34593 215.76C1.79593 215.09 1.20593 214.16 0.705929 212.98C0.465929 212.38 0.215929 211.75 0.0759291 210.95C-0.0640709 210.17 -0.0140709 209.28 0.255929 208.41C0.805929 206.65 2.13593 205.1 3.69593 203.77C5.27593 202.42 7.14593 201.23 9.14593 200.04C10.1359 199.46 11.1559 198.85 12.2059 198.23C12.7159 197.92 13.2159 197.6 13.6859 197.27C13.9259 197.1 14.1259 196.94 14.3459 196.77C14.5859 196.56 14.8259 196.35 15.0659 196.14C16.0259 195.3 17.0059 194.44 18.0259 193.56C18.9859 192.62 19.9659 191.65 20.9759 190.66C24.9159 186.62 28.8159 181.81 32.5459 176.32C36.2859 170.83 39.8459 164.66 43.2759 157.97C46.7059 151.27 49.9959 144.05 53.3659 136.49C54.2059 134.59 55.0559 132.68 55.9059 130.75C56.8259 128.79 57.7659 126.74 58.7859 124.76C59.3159 123.78 59.8459 122.79 60.3859 121.81C60.6559 121.32 60.9159 120.82 61.1959 120.33L62.0659 118.88C62.6459 117.92 63.2359 116.95 63.8259 115.98C64.4359 115.02 65.0759 114.09 65.6959 113.14C70.7459 105.56 76.3859 98.8 81.9159 92.49C87.4559 86.19 92.9159 80.33 97.9259 74.65C99.1659 73.22 100.386 71.82 101.596 70.43C102.766 69.02 103.956 67.64 105.086 66.26C106.196 64.87 107.296 63.5 108.376 62.15C109.436 60.77 110.486 59.41 111.516 58.07C115.616 52.7 119.326 47.6 122.676 42.91C129.356 33.51 134.576 25.73 138.186 20.36C141.786 14.98 143.786 12 143.786 12C143.786 12 142.266 15.25 139.376 21.06C136.466 26.86 132.196 35.22 126.376 45.3C123.466 50.33 120.176 55.8 116.436 61.55C115.506 62.99 114.546 64.44 113.556 65.92C112.556 67.39 111.506 68.88 110.456 70.39C109.386 71.89 108.266 73.38 107.136 74.9C105.986 76.39 104.816 77.9 103.626 79.44C98.8259 85.5 93.5959 91.63 88.3359 97.98C83.0759 104.34 77.7659 110.94 73.0259 118.06C72.4359 118.95 71.8359 119.83 71.2559 120.72C70.7059 121.62 70.1459 122.52 69.5959 123.42L68.7659 124.76L67.9959 126.12C67.4859 127.03 66.9859 127.93 66.4759 128.84C65.9659 129.74 65.5459 130.67 65.0759 131.58C64.6159 132.5 64.1659 133.42 63.7059 134.33C62.7959 136.25 61.8959 138.15 60.9959 140.04C57.3759 147.58 53.6859 154.83 49.7759 161.55C45.8559 168.27 41.7159 174.46 37.3659 179.91C33.0259 185.37 28.4759 190.06 23.9459 193.9C22.7959 194.83 21.6659 195.74 20.5659 196.63C19.4159 197.45 18.2959 198.24 17.2059 199.01C16.9359 199.2 16.6659 199.39 16.3959 199.58C16.0859 199.78 15.7659 199.98 15.4659 200.15C14.8559 200.49 14.2759 200.77 13.6959 201.04C12.5659 201.55 11.4759 202.04 10.4259 202.51C8.35593 203.44 6.48593 204.36 4.92593 205.39C3.37593 206.42 2.12593 207.59 1.53593 208.89C1.23593 209.53 1.11593 210.2 1.13593 210.85C1.16593 211.48 1.30593 212.14 1.46593 212.72C1.78593 213.89 2.21593 214.83 2.64593 215.55C3.07593 216.27 3.48593 216.77 3.76593 217.1C4.05593 217.43 4.21593 217.58 4.21593 217.58L4.23593 217.58Z" fill="black"/>
<path d="M234.816 0.0200055L232.756 2.89C231.386 4.76 229.336 7.49 226.566 10.91C223.806 14.34 220.336 18.46 216.256 23.18C212.186 27.91 207.506 33.23 202.586 39.23C200.136 42.24 197.606 45.4 195.126 48.79C194.476 49.63 193.916 50.48 193.326 51.33C193.036 51.76 192.726 52.18 192.446 52.62C192.166 53.06 191.896 53.51 191.616 53.96C191.336 54.41 191.056 54.86 190.776 55.31L189.986 56.71C189.726 57.18 189.456 57.65 189.196 58.12C188.946 58.6 188.706 59.09 188.456 59.58C184.496 67.38 181.596 76.4 179.946 86.15C179.106 91.03 178.626 96.08 178.396 101.28C178.166 106.52 178.216 112.12 177.686 118.09C177.416 121.07 177.016 124.15 176.276 127.28L175.996 128.46L175.636 129.68C175.396 130.49 175.166 131.31 174.846 132.1C174.276 133.71 173.546 135.28 172.736 136.82C171.096 139.89 168.966 142.76 166.436 145.24C163.916 147.73 161.006 149.83 157.896 151.48C154.786 153.14 151.506 154.35 148.196 155.14C147.366 155.33 146.536 155.49 145.706 155.66C144.906 155.81 144.196 155.91 143.446 156.04C141.946 156.29 140.476 156.51 139.016 156.72C133.166 157.57 127.546 158.23 122.276 159.22C116.996 160.2 112.056 161.5 107.636 163.43C103.216 165.35 99.3361 167.94 96.0961 171.16C95.3161 172 94.5461 172.84 93.7761 173.68C93.0261 174.55 92.3161 175.46 91.6161 176.4C90.2261 178.29 88.9061 180.29 87.5861 182.33C86.2661 184.37 84.9561 186.45 83.5561 188.5C83.1961 189.01 82.8461 189.52 82.4961 190.03C82.1261 190.54 81.7261 191.07 81.3361 191.58C80.9561 192.1 80.5261 192.59 80.1161 193.08C79.7061 193.58 79.2861 194.06 78.8461 194.51C75.4161 198.27 71.4261 201.17 67.4661 203.41C63.4761 205.65 59.4961 207.27 55.6961 208.59C48.2061 211.12 41.4361 213.32 35.3161 214.92C29.2061 216.53 23.8461 217.48 19.3961 217.89C14.8961 218.26 11.3861 217.66 9.17609 216.88C8.06609 216.5 7.27609 216.07 6.75609 215.79C6.25609 215.48 5.99609 215.31 5.99609 215.31L6.81609 215.67C7.37609 215.87 8.19609 216.17 9.31609 216.39C11.5461 216.84 14.9461 216.94 19.1361 216.05C23.3461 215.11 28.4361 213.55 34.1761 211.33C39.9161 209.12 46.3861 206.24 53.4861 203.06C56.9561 201.47 60.4561 199.65 63.7561 197.4C67.0461 195.14 70.1361 192.46 72.6761 189.19C73.0061 188.79 73.3161 188.38 73.6161 187.95C73.9161 187.52 74.2361 187.11 74.5161 186.66C74.7961 186.21 75.0861 185.79 75.3761 185.32C75.6661 184.84 75.9561 184.35 76.2461 183.86C77.3961 181.89 78.5361 179.8 79.7361 177.63C80.9461 175.46 82.2261 173.21 83.6861 170.94C84.4161 169.81 85.2061 168.66 86.0661 167.54C86.9761 166.44 87.8861 165.33 88.7961 164.22C92.6761 159.9 97.6161 156.25 103.036 153.62C108.456 150.96 114.256 149.26 120.016 148.02C125.796 146.77 131.566 145.97 137.226 145.05C138.646 144.82 140.056 144.6 141.446 144.34C142.136 144.22 142.876 144.1 143.526 143.97L145.356 143.57C147.786 142.97 150.116 142.09 152.286 140.93C156.626 138.63 160.116 135.25 162.376 131.15C162.936 130.12 163.446 129.07 163.866 127.96C164.106 127.42 164.266 126.85 164.446 126.29L164.716 125.44L164.956 124.53C165.586 122.09 166.006 119.53 166.316 116.91C166.946 111.66 167.106 106.17 167.576 100.59C168.056 94.97 168.856 89.46 170.066 84.18C172.456 73.61 176.296 63.88 181.336 55.59C181.646 55.07 181.966 54.56 182.276 54.05C182.606 53.55 182.946 53.05 183.276 52.56C183.606 52.07 183.936 51.58 184.266 51.09C184.606 50.61 184.966 50.14 185.316 49.67L186.356 48.27C186.706 47.81 187.086 47.37 187.446 46.92C188.176 46.03 188.896 45.14 189.616 44.35C192.486 41.06 195.376 38.05 198.156 35.23C203.736 29.6 208.976 24.79 213.546 20.55C218.126 16.32 222.046 12.68 225.196 9.64C228.356 6.61 230.756 4.2 232.366 2.54C233.976 0.880002 234.816 1.18754e-06 234.816 1.18754e-06L234.816 0.0200055Z" fill="black"/>
<path d="M98.021 195.138L99.9302 193.652C100.554 193.17 101.308 192.558 102.23 191.856C103.168 191.19 104.244 190.414 105.457 189.549C110.337 186.165 117.735 181.694 127.518 178.115C132.405 176.327 137.889 174.782 143.846 173.679C145.333 173.405 146.861 173.178 148.408 172.943C149.964 172.759 151.537 172.536 153.139 172.409C154.743 172.237 156.377 172.162 158.021 172.06C159.676 172.009 161.354 171.937 163.044 171.947C166.435 171.94 169.905 172.073 173.428 172.39C175.194 172.531 176.962 172.757 178.743 172.989L180.065 173.182C180.065 173.182 180.121 173.213 180.147 173.224C180.19 173.249 180.223 173.279 180.244 173.303C180.265 173.327 180.285 173.351 180.293 173.369C180.282 173.395 180.225 173.44 180.205 173.47C180.171 173.495 180.147 173.515 180.133 173.532L180.105 173.543C180.105 173.543 180.065 173.603 180.054 173.629L179.893 173.922L179.542 174.542C177.717 177.895 175.744 181.2 173.585 184.398C172.477 185.966 171.433 187.583 170.24 189.023C169.66 189.769 169.085 190.502 168.513 191.244C167.901 191.938 167.294 192.619 166.678 193.304L165.771 194.335C165.464 194.667 165.132 194.965 164.812 195.291C164.173 195.92 163.534 196.55 162.904 197.175C162.233 197.753 161.568 198.318 160.912 198.879C160.581 199.155 160.254 199.462 159.916 199.719L158.873 200.471L157.844 201.228L157.327 201.602L156.791 201.93C156.072 202.365 155.367 202.806 154.667 203.233C153.931 203.6 153.204 203.963 152.477 204.326C152.117 204.527 151.736 204.651 151.365 204.803L150.255 205.258C147.271 206.363 144.201 206.995 141.137 207.138C135.015 207.443 128.988 205.818 123.77 203.321C123.446 203.162 123.121 203.004 122.806 202.841C122.668 202.768 122.62 202.755 122.558 202.737L122.376 202.661C122.128 202.557 121.872 202.435 121.6 202.298C121.337 202.157 121.061 202.011 120.777 201.846C120.635 201.764 120.493 201.682 120.357 201.586C120.296 201.568 120.338 201.54 120.358 201.51L120.413 201.434L120.52 201.271C120.811 200.849 121.147 200.376 121.512 199.87C121.608 199.733 121.683 199.627 121.815 199.475L121.918 199.357L122.084 199.181L122.43 198.813C122.888 198.322 123.331 197.848 123.784 197.371C127.386 193.635 130.906 190.463 134.301 188.12C137.675 185.753 140.866 184.099 143.598 183.065C146.335 182.018 148.609 181.605 150.162 181.465C151.719 181.335 152.548 181.459 152.548 181.459C152.548 181.459 151.764 181.154 150.165 180.999C148.572 180.831 146.173 180.831 143.142 181.425C140.116 182.007 136.489 183.202 132.544 185.154C128.583 187.092 124.418 189.902 120.119 193.362C119.588 193.806 119.044 194.246 118.504 194.694C118.207 194.945 117.91 195.197 117.61 195.439C117.222 195.76 116.856 196.159 116.497 196.522C115.005 198.074 113.482 199.66 111.918 201.274L111.32 201.898L111.018 202.216C110.943 202.323 110.719 202.436 110.905 202.522C111.304 202.888 111.707 203.263 112.109 203.639C112.91 204.38 113.747 205.129 114.622 205.894C115.563 206.632 116.502 207.393 117.579 208.097L118.373 208.636C118.633 208.821 118.924 209.004 119.126 209.127C119.477 209.351 119.841 209.58 120.196 209.812C123.099 211.594 126.315 213.139 129.839 214.3C133.359 215.45 137.2 216.199 141.219 216.302C149.251 216.543 157.888 213.91 164.87 208.982L166.207 208.077C166.656 207.775 167.054 207.428 167.478 207.092C168.317 206.423 169.156 205.755 169.988 205.068C170.769 204.337 171.55 203.606 172.341 202.871C172.727 202.497 173.131 202.137 173.505 201.756L174.597 200.573C175.32 199.78 176.057 198.992 176.779 198.198C177.452 197.36 178.115 196.526 178.797 195.685C180.19 194.022 181.363 192.244 182.613 190.467C185.028 186.894 187.148 183.236 189.059 179.567L189.92 177.949C190.327 177.069 190.691 176.217 191.077 175.367C191.827 173.665 192.578 171.963 193.319 170.265C193.687 169.423 194.055 168.58 194.426 167.747L194.973 166.496L195.248 165.875L195.281 165.797C195.281 165.797 195.321 165.737 195.267 165.738L195.1 165.698L194.765 165.62C193.016 165.202 191.27 164.794 189.543 164.378C187.796 163.992 185.988 163.641 184.146 163.392C183.236 163.256 182.31 163.107 181.42 163.018L179.92 162.865C177.937 162.695 175.979 162.558 174.045 162.507C170.167 162.379 166.379 162.473 162.699 162.75C160.86 162.877 159.045 163.091 157.268 163.291C155.491 163.544 153.738 163.776 152.018 164.114C150.297 164.398 148.622 164.793 146.976 165.154C145.336 165.557 143.718 165.961 142.155 166.418C135.879 168.245 130.239 170.569 125.349 173.114C115.528 178.211 108.711 183.989 104.4 188.21C103.341 189.293 102.4 190.24 101.585 191.072C100.799 191.924 100.16 192.683 99.6354 193.276C98.6002 194.468 98.0504 195.104 98.0504 195.104L98.021 195.138Z" fill="black"/>
<path d="M282.811 105.998C282.811 104.566 282.29 103.752 281.248 103.556C280.923 103.491 280.597 103.459 280.271 103.459H274.998V77.1892H304.002V103.459H296.189V105.998H321.189C321.189 104.566 320.669 103.752 319.627 103.556C319.301 103.491 318.976 103.459 318.65 103.459H313.377V49.9431H321.189V47.4041H296.189V49.9431H304.002V74.3572H274.998V49.9431H282.811V47.4041H257.811V49.9431H265.623V103.459H257.811V105.998H282.811ZM349.119 65.7634C353.546 65.7634 356.411 67.7817 357.713 71.8181C358.104 73.0551 358.299 74.3572 358.299 75.7244C358.299 78.9145 356.867 80.8676 354.002 81.5837C352.374 81.9744 350.128 82.1371 347.264 82.072L337.693 81.7791C337.954 74.0968 340.298 69.1163 344.725 66.8376C346.092 66.1215 347.557 65.7634 349.119 65.7634ZM366.404 96.5251L363.963 95.6462C361.88 100.204 358.559 102.97 354.002 103.947C352.96 104.142 351.951 104.24 350.975 104.24C344.074 104.24 339.842 99.878 338.279 91.1541C337.954 89.1358 337.758 86.9223 337.693 84.5134L348.924 84.7087C357.257 84.8389 362.563 83.9926 364.842 82.1697C366.339 80.8676 367.088 79.1098 367.088 76.8962C367.088 72.2738 364.744 68.628 360.057 65.9587C356.801 64.2009 353.09 63.322 348.924 63.322C341.046 63.322 335.252 66.4796 331.541 72.7947C329.458 76.4405 328.416 80.6397 328.416 85.3923C328.416 93.7257 331.443 99.8455 337.498 103.752C340.949 105.9 344.855 106.974 349.217 106.974C356.508 106.974 361.814 104.338 365.135 99.0642C365.59 98.2179 366.014 97.3715 366.404 96.5251ZM408.299 106.974C412.986 106.974 415.786 104.631 416.697 99.9431C416.827 98.9666 416.925 97.9249 416.99 96.8181L414.451 96.7205C413.995 101.408 412.758 103.784 410.74 103.849C409.113 103.719 408.266 102.059 408.201 98.8689V78.2634C408.071 68.3676 402.7 63.3871 392.088 63.322C384.536 63.322 379.523 65.0473 377.049 68.4978C376.268 69.6046 375.877 70.7113 375.877 71.8181C375.877 73.9014 376.854 75.171 378.807 75.6267C379.262 75.6918 379.686 75.7244 380.076 75.7244C381.834 75.7244 383.104 74.6827 383.885 72.5994C384.796 70.0603 385.35 68.628 385.545 68.3025C386.782 66.6098 388.637 65.7634 391.111 65.7634C396.906 65.8936 399.835 69.2791 399.9 75.9197V82.072C383.689 82.1371 374.9 85.8806 373.533 93.3025C373.403 94.0186 373.338 94.7999 373.338 95.6462C373.338 100.789 375.584 104.24 380.076 105.998C381.769 106.649 383.592 106.974 385.545 106.974C390.298 106.974 394.236 105.347 397.361 102.092C398.533 100.855 399.412 99.5199 399.998 98.0876C400.844 103.947 403.611 106.909 408.299 106.974ZM389.158 102.97C385.057 102.97 382.713 100.692 382.127 96.1345C382.062 95.4835 382.029 94.7999 382.029 94.0837C382.029 89.7218 384.438 86.9548 389.256 85.783C391.795 85.197 395.343 84.8715 399.9 84.8064V92.9119C398.794 97.4041 396.45 100.497 392.869 102.189C391.567 102.71 390.33 102.97 389.158 102.97ZM441.307 103.556H436.033V42.5212H420.311V44.9626H427.732V97.7947C427.732 100.724 426.854 102.482 425.096 103.068C424.054 103.394 422.459 103.556 420.311 103.556V105.998H443.65C443.65 104.566 443.195 103.784 442.283 103.654C441.958 103.589 441.632 103.556 441.307 103.556ZM448.045 66.9353H454.881V93.8884C455.337 102.417 459.275 106.812 466.697 107.072C472.817 107.072 476.626 103.394 478.123 96.0369C478.123 95.9718 478.123 95.9067 478.123 95.8416L475.486 95.3533C474.119 101.148 471.775 104.077 468.455 104.142C465.005 104.012 463.247 101.506 463.182 96.6228V66.9353H477.928V64.4939H463.182V53.1658L454.881 55.2166V64.4939H448.045V66.9353ZM501.268 103.556H496.873V81.9744C496.873 75.9848 498.859 71.7856 502.83 69.3767C504.458 68.4001 506.085 67.9119 507.713 67.9119C511.619 67.9119 514.288 69.8324 515.721 73.6736C516.242 75.171 516.502 76.8962 516.502 78.8494V97.7947C516.502 100.659 515.883 102.385 514.646 102.97C513.8 103.361 512.368 103.556 510.35 103.556V105.998H531.834C531.834 104.566 531.346 103.784 530.369 103.654C530.109 103.589 529.783 103.556 529.393 103.556H524.9V79.1423C524.9 71.8507 522.459 67.0004 517.576 64.5916C515.818 63.7452 513.93 63.322 511.912 63.322C507.029 63.322 502.96 65.1124 499.705 68.6931C498.468 70.1254 497.524 71.6879 496.873 73.3806V42.5212H481.541V44.9626H488.475V97.7947C488.475 100.789 487.596 102.58 485.838 103.166C484.926 103.426 483.494 103.556 481.541 103.556V105.998H503.709C503.709 104.566 503.221 103.784 502.244 103.654C501.984 103.589 501.658 103.556 501.268 103.556ZM544.725 121.525C543.683 121.525 542.869 120.711 542.283 119.084C541.502 117.066 540.753 115.829 540.037 115.373C539.451 114.982 538.768 114.787 537.986 114.787C535.838 114.787 534.568 115.698 534.178 117.521C534.113 117.847 534.08 118.14 534.08 118.4C534.08 120.809 535.512 122.599 538.377 123.771C539.809 124.357 541.307 124.65 542.869 124.65C548.012 124.65 552.472 121.525 556.248 115.275C557.745 112.801 559.21 109.806 560.643 106.291L575.096 70.158C575.747 68.335 576.495 67.2934 577.342 67.033C577.732 66.9679 578.188 66.9353 578.709 66.9353C580.076 66.9353 580.857 66.5772 581.053 65.8611C581.118 65.4705 581.15 64.9822 581.15 64.3962H566.307V66.9353H573.436L561.229 97.3064L548.24 66.9353H554.686V64.3962H534.861V66.9353H539.451L557.322 106.388C553.807 114.787 550.486 119.67 547.361 121.037C546.45 121.362 545.571 121.525 544.725 121.525ZM633.006 105.998V103.459H621.287V77.1892H641.209V74.3572H621.287V49.9431H636.033C641.046 49.9431 644.562 53.2309 646.58 59.8064C646.645 59.9366 646.678 60.0668 646.678 60.197L648.24 65.2751H650.389L649.9 47.4041H604.1V49.9431H611.912V103.459H604.1V105.998H633.006ZM675.682 65.7634C680.109 65.7634 682.973 67.7817 684.275 71.8181C684.666 73.0551 684.861 74.3572 684.861 75.7244C684.861 78.9145 683.429 80.8676 680.564 81.5837C678.937 81.9744 676.691 82.1371 673.826 82.072L664.256 81.7791C664.516 74.0968 666.86 69.1163 671.287 66.8376C672.654 66.1215 674.119 65.7634 675.682 65.7634ZM692.967 96.5251L690.525 95.6462C688.442 100.204 685.122 102.97 680.564 103.947C679.523 104.142 678.514 104.24 677.537 104.24C670.636 104.24 666.404 99.878 664.842 91.1541C664.516 89.1358 664.321 86.9223 664.256 84.5134L675.486 84.7087C683.82 84.8389 689.126 83.9926 691.404 82.1697C692.902 80.8676 693.65 79.1098 693.65 76.8962C693.65 72.2738 691.307 68.628 686.619 65.9587C683.364 64.2009 679.653 63.322 675.486 63.322C667.609 63.322 661.814 66.4796 658.104 72.7947C656.02 76.4405 654.979 80.6397 654.979 85.3923C654.979 93.7257 658.006 99.8455 664.061 103.752C667.511 105.9 671.417 106.974 675.779 106.974C683.071 106.974 688.377 104.338 691.697 99.0642C692.153 98.2179 692.576 97.3715 692.967 96.5251ZM721.189 65.7634C725.617 65.7634 728.481 67.7817 729.783 71.8181C730.174 73.0551 730.369 74.3572 730.369 75.7244C730.369 78.9145 728.937 80.8676 726.072 81.5837C724.445 81.9744 722.199 82.1371 719.334 82.072L709.764 81.7791C710.024 74.0968 712.368 69.1163 716.795 66.8376C718.162 66.1215 719.627 65.7634 721.189 65.7634ZM738.475 96.5251L736.033 95.6462C733.95 100.204 730.63 102.97 726.072 103.947C725.031 104.142 724.021 104.24 723.045 104.24C716.144 104.24 711.912 99.878 710.35 91.1541C710.024 89.1358 709.829 86.9223 709.764 84.5134L720.994 84.7087C729.327 84.8389 734.633 83.9926 736.912 82.1697C738.41 80.8676 739.158 79.1098 739.158 76.8962C739.158 72.2738 736.814 68.628 732.127 65.9587C728.872 64.2009 725.161 63.322 720.994 63.322C713.117 63.322 707.322 66.4796 703.611 72.7947C701.528 76.4405 700.486 80.6397 700.486 85.3923C700.486 93.7257 703.514 99.8455 709.568 103.752C713.019 105.9 716.925 106.974 721.287 106.974C728.579 106.974 733.885 104.338 737.205 99.0642C737.661 98.2179 738.084 97.3715 738.475 96.5251ZM744.139 66.9353H750.975V93.8884C751.43 102.417 755.369 106.812 762.791 107.072C768.911 107.072 772.719 103.394 774.217 96.0369C774.217 95.9718 774.217 95.9067 774.217 95.8416L771.58 95.3533C770.213 101.148 767.869 104.077 764.549 104.142C761.098 104.012 759.34 101.506 759.275 96.6228V66.9353H774.021V64.4939H759.275V53.1658L750.975 55.2166V64.4939H744.139V66.9353Z" fill="black"/>
<path d="M260.152 175.845H252.555V172.779H260.152C261.624 172.779 262.815 172.545 263.727 172.076C264.638 171.607 265.302 170.956 265.719 170.123C266.148 169.289 266.363 168.339 266.363 167.271C266.363 166.295 266.148 165.377 265.719 164.517C265.302 163.658 264.638 162.968 263.727 162.447C262.815 161.913 261.624 161.646 260.152 161.646H253.434V186.998H249.664V158.56H260.152C262.301 158.56 264.117 158.931 265.602 159.674C267.086 160.416 268.212 161.444 268.98 162.76C269.749 164.062 270.133 165.552 270.133 167.232C270.133 169.055 269.749 170.611 268.98 171.9C268.212 173.189 267.086 174.172 265.602 174.849C264.117 175.513 262.301 175.845 260.152 175.845ZM336.793 171.881V173.677C336.793 175.813 336.526 177.727 335.992 179.42C335.458 181.112 334.69 182.551 333.688 183.736C332.685 184.921 331.48 185.826 330.074 186.451C328.681 187.076 327.118 187.388 325.387 187.388C323.707 187.388 322.164 187.076 320.758 186.451C319.365 185.826 318.154 184.921 317.125 183.736C316.109 182.551 315.322 181.112 314.762 179.42C314.202 177.727 313.922 175.813 313.922 173.677V171.881C313.922 169.745 314.195 167.838 314.742 166.158C315.302 164.465 316.09 163.026 317.105 161.842C318.121 160.644 319.326 159.732 320.719 159.107C322.125 158.482 323.668 158.17 325.348 158.17C327.079 158.17 328.642 158.482 330.035 159.107C331.441 159.732 332.646 160.644 333.648 161.842C334.664 163.026 335.439 164.465 335.973 166.158C336.52 167.838 336.793 169.745 336.793 171.881ZM333.062 173.677V171.842C333.062 170.149 332.887 168.651 332.535 167.349C332.197 166.047 331.695 164.954 331.031 164.068C330.367 163.183 329.553 162.512 328.59 162.056C327.639 161.601 326.559 161.373 325.348 161.373C324.176 161.373 323.115 161.601 322.164 162.056C321.227 162.512 320.419 163.183 319.742 164.068C319.078 164.954 318.564 166.047 318.199 167.349C317.835 168.651 317.652 170.149 317.652 171.842V173.677C317.652 175.383 317.835 176.894 318.199 178.209C318.564 179.511 319.085 180.611 319.762 181.51C320.452 182.395 321.266 183.066 322.203 183.521C323.154 183.977 324.215 184.205 325.387 184.205C326.611 184.205 327.698 183.977 328.648 183.521C329.599 183.066 330.4 182.395 331.051 181.51C331.715 180.611 332.216 179.511 332.555 178.209C332.893 176.894 333.062 175.383 333.062 173.677ZM390.133 186.998H384.195L384.234 183.931H390.133C392.164 183.931 393.857 183.508 395.211 182.662C396.565 181.802 397.581 180.605 398.258 179.068C398.948 177.519 399.293 175.709 399.293 173.638V171.9C399.293 170.273 399.098 168.827 398.707 167.564C398.316 166.288 397.743 165.214 396.988 164.342C396.233 163.456 395.309 162.786 394.215 162.33C393.134 161.874 391.891 161.646 390.484 161.646H384.078V158.56H390.484C392.346 158.56 394.046 158.873 395.582 159.498C397.118 160.11 398.44 161.002 399.547 162.174C400.667 163.332 401.526 164.739 402.125 166.392C402.724 168.033 403.023 169.882 403.023 171.939V173.638C403.023 175.696 402.724 177.551 402.125 179.205C401.526 180.845 400.66 182.245 399.527 183.404C398.408 184.563 397.053 185.455 395.465 186.08C393.889 186.692 392.112 186.998 390.133 186.998ZM386.207 158.56V186.998H382.438V158.56H386.207ZM470.582 171.881V173.677C470.582 175.813 470.315 177.727 469.781 179.42C469.247 181.112 468.479 182.551 467.477 183.736C466.474 184.921 465.27 185.826 463.863 186.451C462.47 187.076 460.908 187.388 459.176 187.388C457.496 187.388 455.953 187.076 454.547 186.451C453.154 185.826 451.943 184.921 450.914 183.736C449.898 182.551 449.111 181.112 448.551 179.42C447.991 177.727 447.711 175.813 447.711 173.677V171.881C447.711 169.745 447.984 167.838 448.531 166.158C449.091 164.465 449.879 163.026 450.895 161.842C451.91 160.644 453.115 159.732 454.508 159.107C455.914 158.482 457.457 158.17 459.137 158.17C460.868 158.17 462.431 158.482 463.824 159.107C465.23 159.732 466.435 160.644 467.438 161.842C468.453 163.026 469.228 164.465 469.762 166.158C470.309 167.838 470.582 169.745 470.582 171.881ZM466.852 173.677V171.842C466.852 170.149 466.676 168.651 466.324 167.349C465.986 166.047 465.484 164.954 464.82 164.068C464.156 163.183 463.342 162.512 462.379 162.056C461.428 161.601 460.348 161.373 459.137 161.373C457.965 161.373 456.904 161.601 455.953 162.056C455.016 162.512 454.208 163.183 453.531 164.068C452.867 164.954 452.353 166.047 451.988 167.349C451.624 168.651 451.441 170.149 451.441 171.842V173.677C451.441 175.383 451.624 176.894 451.988 178.209C452.353 179.511 452.874 180.611 453.551 181.51C454.241 182.395 455.055 183.066 455.992 183.521C456.943 183.977 458.004 184.205 459.176 184.205C460.4 184.205 461.487 183.977 462.438 183.521C463.388 183.066 464.189 182.395 464.84 181.51C465.504 180.611 466.005 179.511 466.344 178.209C466.682 176.894 466.852 175.383 466.852 173.677ZM533.473 183.931V186.998H519.254V183.931H533.473ZM519.996 158.56V186.998H516.227V158.56H519.996ZM598.395 171.881V173.677C598.395 175.813 598.128 177.727 597.594 179.42C597.06 181.112 596.292 182.551 595.289 183.736C594.286 184.921 593.082 185.826 591.676 186.451C590.283 187.076 588.72 187.388 586.988 187.388C585.309 187.388 583.766 187.076 582.359 186.451C580.966 185.826 579.755 184.921 578.727 183.736C577.711 182.551 576.923 181.112 576.363 179.42C575.803 177.727 575.523 175.813 575.523 173.677V171.881C575.523 169.745 575.797 167.838 576.344 166.158C576.904 164.465 577.691 163.026 578.707 161.842C579.723 160.644 580.927 159.732 582.32 159.107C583.727 158.482 585.27 158.17 586.949 158.17C588.681 158.17 590.243 158.482 591.637 159.107C593.043 159.732 594.247 160.644 595.25 161.842C596.266 163.026 597.04 164.465 597.574 166.158C598.121 167.838 598.395 169.745 598.395 171.881ZM594.664 173.677V171.842C594.664 170.149 594.488 168.651 594.137 167.349C593.798 166.047 593.297 164.954 592.633 164.068C591.969 163.183 591.155 162.512 590.191 162.056C589.241 161.601 588.16 161.373 586.949 161.373C585.777 161.373 584.716 161.601 583.766 162.056C582.828 162.512 582.021 163.183 581.344 164.068C580.68 164.954 580.165 166.047 579.801 167.349C579.436 168.651 579.254 170.149 579.254 171.842V173.677C579.254 175.383 579.436 176.894 579.801 178.209C580.165 179.511 580.686 180.611 581.363 181.51C582.053 182.395 582.867 183.066 583.805 183.521C584.755 183.977 585.816 184.205 586.988 184.205C588.212 184.205 589.299 183.977 590.25 183.521C591.201 183.066 592.001 182.395 592.652 181.51C593.316 180.611 593.818 179.511 594.156 178.209C594.495 176.894 594.664 175.383 594.664 173.677ZM665.055 172.838V183.248C664.703 183.769 664.143 184.355 663.375 185.006C662.607 185.644 661.546 186.204 660.191 186.685C658.85 187.154 657.118 187.388 654.996 187.388C653.264 187.388 651.669 187.089 650.211 186.49C648.766 185.878 647.509 184.993 646.441 183.834C645.387 182.662 644.566 181.243 643.98 179.576C643.408 177.896 643.121 175.995 643.121 173.873V171.666C643.121 169.543 643.368 167.649 643.863 165.982C644.371 164.316 645.113 162.903 646.09 161.744C647.066 160.572 648.264 159.687 649.684 159.088C651.103 158.476 652.73 158.17 654.566 158.17C656.741 158.17 658.557 158.547 660.016 159.302C661.487 160.045 662.633 161.073 663.453 162.388C664.286 163.704 664.82 165.201 665.055 166.881H661.285C661.116 165.852 660.777 164.914 660.27 164.068C659.775 163.222 659.065 162.545 658.141 162.037C657.216 161.516 656.025 161.256 654.566 161.256C653.251 161.256 652.112 161.497 651.148 161.978C650.185 162.46 649.391 163.15 648.766 164.049C648.141 164.947 647.672 166.034 647.359 167.31C647.06 168.586 646.91 170.025 646.91 171.627V173.873C646.91 175.513 647.099 176.978 647.477 178.267C647.867 179.556 648.421 180.657 649.137 181.568C649.853 182.467 650.706 183.15 651.695 183.619C652.698 184.088 653.805 184.322 655.016 184.322C656.357 184.322 657.444 184.211 658.277 183.99C659.111 183.756 659.762 183.482 660.23 183.17C660.699 182.844 661.057 182.538 661.305 182.252V175.885H654.723V172.838H665.055ZM715.348 158.56V186.998H711.578V158.56H715.348ZM780.27 183.931V186.998H765.211V183.931H780.27ZM765.973 158.56V186.998H762.203V158.56H765.973ZM778.277 170.787V173.853H765.211V170.787H778.277ZM780.074 158.56V161.646H765.211V158.56H780.074Z" fill="black"/>
</svg>
